:SAMPLES-PER-SECOND 30
:FULLY-SPECIFIED
:DEGREES
597
root  -4.56605 41.035 -2.26854 -133.056 -87.9211 135.138
RightUpLeg  -0.265892 -9.20664 -6.78528
RightLeg  4.46553 -8.62369 3.51132
RightFoot  -3.72428 -0.0106135 -0.224176
RightToes  0.00048216 0.542163 -0.142577
Spine  3.7277 0.691536 0.185922
Spine1  -3.93299 0.769875 -0.0872499
HEad  -4.33527 -13.6456 1.47649
LeftShoulder1  0.534304 -0.870986 -4.20244
LeftArm  -21.3794 11.1658 -5.71578
LeftForeArm  10.6377 -4.29146 -0.373808
LeftHand  -0.25398 0.0180481 5.50724
RightShoulder  0.26813 -1.03113 2.75659
RightArm  -19.34 0.512505 2.00057
RightForeArm  -3.94495 1.04424 3.75548
RightHand  -2.96035 8.60039 -24.6298
LeftUpLeg  0.739796 4.67647 1.30312
LeftLeg  -0.670912 22.3438 -5.35549
LeftFoot  -2.43023 0.0096357 0.112428
LeftToes  1.06244e-005 4.65854e-005 -8.18505e-006
598
root  -4.51925 41.0418 -2.3073 -141.37 -87.5688 143.378
RightUpLeg  -0.332021 -9.18571 -6.72845
RightLeg  4.45436 -8.14666 3.56474
RightFoot  -3.60606 -0.00349506 -0.309815
RightToes  0.00048216 0.542163 -0.142577
Spine  3.88833 0.663577 0.027149
Spine1  -3.88983 0.72618 -0.00317063
HEad  -4.90742 -12.767 1.28145
LeftShoulder1  0.537655 -0.825907 -4.43427
LeftArm  -20.4328 11.3317 -5.9027
LeftForeArm  8.01632 -2.65864 -0.535903
LeftHand  -0.25398 0.0180481 5.50724
RightShoulder  0.28609 -0.894437 2.89555
RightArm  -18.9931 0.3753 2.23624
RightForeArm  -2.80192 1.00195 3.75823
RightHand  -2.86583 8.3492 -24.2934
LeftUpLeg  0.854987 4.72424 1.37433
LeftLeg  -0.833217 22.778 -5.41666
LeftFoot  -2.28072 0.0116325 0.0728801
LeftToes  1.06244e-005 4.65854e-005 -8.18505e-006
599
root  -4.4929 41.0494 -2.3487 -146.396 -87.2526 148.405
RightUpLeg  -0.382084 -9.10613 -6.6295
RightLeg  4.30983 -7.8819 3.58406
RightFoot  -3.50737 0.00621009 -0.433161
RightToes  0.00048216 0.542163 -0.142577
Spine  3.82551 0.640984 -0.266051
Spine1  -3.70779 0.66104 0.242234
HEad  -5.39601 -11.8788 1.12233
LeftShoulder1  0.533736 -0.727876 -4.67122
LeftArm  -19.9296 11.6631 -6.15352
LeftForeArm  6.13072 -1.62484 -0.595651
LeftHand  -0.25398 0.0180481 5.50724
RightShoulder  0.289611 -0.862191 2.87242
RightArm  -18.9451 0.157287 2.51638
RightForeArm  -2.3949 0.970453 3.7181
RightHand  -2.82358 8.2639 -24.0934
LeftUpLeg  0.885949 4.67225 1.38349
LeftLeg  -0.966726 23.241 -5.36235
LeftFoot  -2.12484 0.0168712 -0.0171046
LeftToes  1.06244e-005 4.65854e-005 -8.18505e-006
600
root  -4.48016 41.0585 -2.39391 -149.729 -87.0155 151.816
RightUpLeg  -0.453908 -8.98552 -6.47563
RightLeg  4.11466 -7.78754 3.58217
RightFoot  -3.36137 0.0150689 -0.542312
RightToes  0.00048216 0.542163 -0.142577
Spine  3.61808 0.609731 -0.556615
Spine1  -3.51374 0.590808 0.468335
HEad  -5.8229 -11.264 1.1071
LeftShoulder1  0.531569 -0.653722 -4.83405
LeftArm  -19.7515 12.1396 -6.33786
LeftForeArm  5.53372 -1.21768 -0.563755
LeftHand  -0.25398 0.0180481 5.50724
RightShoulder  0.291125 -0.882243 2.95642
RightArm  -19.0909 -0.0313741 2.59442
RightForeArm  -2.40768 0.823995 3.6354
RightHand  -2.81283 8.27138 -23.9934
LeftUpLeg  0.844137 4.65255 1.43199
LeftLeg  -1.07615 23.5801 -5.32485
LeftFoot  -1.97676 0.0232822 -0.125313
LeftToes  1.06244e-005 4.65854e-005 -8.18505e-006
601
root  -4.47469 41.0677 -2.43667 -152.647 -86.8379 154.768
RightUpLeg  -0.446211 -8.85508 -6.30637
RightLeg  3.91746 -7.70237 3.57829
RightFoot  -3.20557 0.0194376 -0.582078
RightToes  0.00048216 0.542163 -0.142577
Spine  3.50397 0.590805 -0.690897
Spine1  -3.45584 0.565516 0.494473
HEad  -6.0849 -11.044 1.1459
LeftShoulder1  0.536446 -0.65813 -4.94704
LeftArm  -19.5899 12.6077 -6.32924
LeftForeArm  5.6535 -1.18375 -0.554729
LeftHand  -0.25398 0.0180481 5.50724
RightShoulder  0.289627 -0.918109 3.16561
RightArm  -19.2339 -0.224764 2.45212
RightForeArm  -2.48082 0.556757 3.53696
RightHand  -2.7599 8.11895 -23.8134
LeftUpLeg  0.864807 4.7261 1.55865
LeftLeg  -1.17551 23.7558 -5.35851
LeftFoot  -1.84878 0.025967 -0.175565
LeftToes  1.06244e-005 4.65854e-005 -8.18505e-006
602
root  -4.47412 41.0741 -2.47375 -154.826 -86.704 156.879
RightUpLeg  -0.33572 -8.74635 -6.17743
RightLeg  3.77814 -7.61829 3.56377
RightFoot  -3.12298 0.0241097 -0.634665
RightToes  0.00048216 0.542163 -0.142577
Spine  3.53498 0.595837 -0.734201
Spine1  -3.48042 0.585206 0.391104
HEad  -6.14672 -11.099 1.09562
LeftShoulder1  0.544716 -0.704066 -5.05207
LeftArm  -19.3951 12.8937 -6.20311
LeftForeArm  5.72591 -1.25241 -0.597572
LeftHand  -0.25398 0.0180481 5.50724
RightShoulder  0.28079 -1.01375 3.24531
RightArm  -19.3224 -0.49932 2.37452
RightForeArm  -2.53843 0.283941 3.44418
RightHand  -2.6651 7.81848 -23.5281
LeftUpLeg  0.993596 4.76542 1.65801
LeftLeg  -1.26826 23.8995 -5.35624
LeftFoot  -1.74203 0.0268933 -0.196294
LeftToes  1.06244e-005 4.65854e-005 -8.18505e-006
603
root  -4.47769 41.0763 -2.50663 -155.535 -86.6359 157.486
RightUpLeg  -0.238218 -8.69488 -6.11951
RightLeg  3.7837 -7.5911 3.54042
RightFoot  -3.127 0.0299174 -0.724888
RightToes  0.00048216 0.542163 -0.142577
Spine  3.54702 0.577634 -0.817347
Spine1  -3.42707 0.581254 0.298216
HEad  -6.16913 -11.1783 1.01727
LeftShoulder1  0.541889 -0.711482 -5.07061
LeftArm  -19.3395 13.0126 -6.15473
LeftForeArm  5.67076 -1.30063 -0.610793
LeftHand  -0.25398 0.0180481 5.50724
RightShoulder  0.261153 -1.16606 3.12552
RightArm  -19.4083 -0.806566 2.4835
RightForeArm  -2.56062 0.114018 3.36245
RightHand  -2.61066 7.66255 -23.3302
LeftUpLeg  1.133 4.70245 1.66551
LeftLeg  -1.32579 24.0488 -5.26951
LeftFoot  -1.66471 0.0309606 -0.259502
LeftToes  1.06244e-005 4.65854e-005 -8.18505e-006
604
root  -4.48354 41.0755 -2.53594 -155.073 -86.6501 156.962
RightUpLeg  -0.212934 -8.69924 -6.11073
RightLeg  3.90398 -7.60913 3.5295
RightFoot  -3.17739 0.03267 -0.767652
RightToes  0.00048216 0.542163 -0.142577
Spine  3.43919 0.488691 -0.950669
Spine1  -3.27131 0.500807 0.247735
HEad  -6.29254 -11.1417 1.03656
LeftShoulder1  0.53587 -0.680347 -4.94024
LeftArm  -19.396 13.1363 -6.22497
LeftForeArm  5.75414 -1.32665 -0.575339
LeftHand  -0.25398 0.0180481 5.50724
RightShoulder  0.245741 -1.28388 3.00894
RightArm  -19.498 -1.02405 2.57275
RightForeArm  -2.46671 0.0751003 3.29799
RightHand  -2.62756 7.7482 -23.3291
LeftUpLeg  1.19898 4.64589 1.65498
LeftLeg  -1.31793 24.0814 -5.1895
LeftFoot  -1.62614 0.0357489 -0.333916
LeftToes  1.06244e-005 4.65854e-005 -8.18505e-006
605
root  -4.49053 41.0736 -2.56193 -154.454 -86.7205 156.322
RightUpLeg  -0.20339 -8.70279 -6.08948
RightLeg  3.99788 -7.66426 3.5285
RightFoot  -3.24307 0.0321653 -0.759812
RightToes  0.00048216 0.542163 -0.142577
Spine  3.27945 0.352803 -1.11036
Spine1  -3.14389 0.360597 0.274461
HEad  -6.41851 -11.0241 1.0756
LeftShoulder1  0.532487 -0.676222 -4.77662
LeftArm  -19.3388 13.3484 -6.27652
LeftForeArm  5.93838 -1.3513 -0.571206
LeftHand  -0.25398 0.0180481 5.50724
RightShoulder  0.241612 -1.31248 2.9911
RightArm  -19.5439 -1.11097 2.50095
RightForeArm  -2.31675 0.137841 3.26847
RightHand  -2.66037 7.86476 -23.4108
LeftUpLeg  1.20133 4.66416 1.69486
LeftLeg  -1.25439 23.9755 -5.15758
LeftFoot  -1.61822 0.0376079 -0.362806
LeftToes  1.06244e-005 4.65854e-005 -8.18505e-006
606
root  -4.50145 41.0726 -2.5883 -154.217 -86.7891 156.08
RightUpLeg  -0.16847 -8.65661 -6.02184
RightLeg  3.99887 -7.77721 3.50708
RightFoot  -3.29911 0.0336897 -0.783495
RightToes  0.00048216 0.542163 -0.142577
Spine  3.13722 0.236829 -1.34417
Spine1  -3.12476 0.215206 0.455382
HEad  -6.3752 -10.8997 0.993634
LeftShoulder1  0.532353 -0.694436 -4.72011
LeftArm  -19.144 13.533 -6.24461
LeftForeArm  6.01882 -1.36578 -0.624567
LeftHand  -0.25398 0.0180481 5.50724
RightShoulder  0.239781 -1.29456 2.94689
RightArm  -19.5168 -1.12311 2.39849
RightForeArm  -2.32629 0.24941 3.28993
RightHand  -2.66199 7.8594 -23.4333
LeftUpLeg  1.20312 4.6763 1.74566
LeftLeg  -1.21853 23.8901 -5.11723
LeftFoot  -1.60492 0.0393292 -0.389557
LeftToes  1.06244e-005 4.65854e-005 -8.18505e-006
607
root  -4.51991 41.0734 -2.61858 -154.314 -86.8045 156.174
RightUpLeg  -0.127768 -8.57618 -5.93032
RightLeg  3.97421 -7.90471 3.45486
RightFoot  -3.32647 0.0372655 -0.839051
RightToes  0.00048216 0.542163 -0.142577
Spine  2.98672 0.178566 -1.65507
Spine1  -3.13468 0.112691 0.741561
HEad  -6.20328 -10.812 0.882794
LeftShoulder1  0.528411 -0.658597 -4.73509
LeftArm  -19.0353 13.5402 -6.21527
LeftForeArm  6.05855 -1.35403 -0.661942
LeftHand  -0.25398 0.0180481 5.50724
RightShoulder  0.239452 -1.28706 2.81987
RightArm  -19.4395 -1.11533 2.39309
RightForeArm  -2.51812 0.356758 3.34708
RightHand  -2.63709 7.77466 -23.3654
LeftUpLeg  1.25436 4.63596 1.76947
LeftLeg  -1.27111 23.9201 -5.06117
LeftFoot  -1.56511 0.0447497 -0.473795
LeftToes  1.06244e-005 4.65854e-005 -8.18505e-006
